<svg xmlns="http://www.w3.org/2000/svg" version="1.1" xmlns:xlink="http://www.w3.org/1999/xlink" xmlns:svgjs="http://svgjs.dev/svgjs" width="1920" height="1080" preserveAspectRatio="none" viewBox="0 0 1920 1080"><g mask="url(&quot;#SvgjsMask1264&quot;)" fill="none"><rect width="1920" height="1080" x="0" y="0" fill="url(&quot;#SvgjsLinearGradient1265&quot;)"></rect><path d="M81 1080L1161 0L2008.5 0L928.5 1080z" fill="url(&quot;#SvgjsLinearGradient1266&quot;)"></path><path d="M748.6 1080L1828.6 0L2704.6 0L1624.6 1080z" fill="url(&quot;#SvgjsLinearGradient1266&quot;)"></path><path d="M1887 1080L807 0L334.5 0L1414.5 1080z" fill="url(&quot;#SvgjsLinearGradient1267&quot;)"></path><path d="M1176.4 1080L96.40000000000009 0L-662.5999999999999 0L417.4000000000001 1080z" fill="url(&quot;#SvgjsLinearGradient1267&quot;)"></path><path d="M1367.521605280284 1080L1920 527.5216052802839L1920 1080z" fill="url(&quot;#SvgjsLinearGradient1266&quot;)"></path><path d="M0 1080L552.4783947197161 1080L 0 527.5216052802839z" fill="url(&quot;#SvgjsLinearGradient1267&quot;)"></path></g><defs><mask id="SvgjsMask1264"><rect width="1920" height="1080" fill="#ffffff"></rect></mask><linearGradient x1="10.94%" y1="119.44%" x2="89.06%" y2="-19.44%" gradientUnits="userSpaceOnUse" id="SvgjsLinearGradient1265"><stop stop-color="rgba(1, 0, 1, 1)" offset="0.6"></stop><stop stop-color="rgba(0, 160, 1, 1)" offset="1"></stop></linearGradient><linearGradient x1="0%" y1="100%" x2="100%" y2="0%" id="SvgjsLinearGradient1266"><stop stop-color="rgba(15, 185, 98, 0.2)" offset="0"></stop><stop stop-opacity="0" stop-color="rgba(15, 185, 98, 0.2)" offset="0.66"></stop></linearGradient><linearGradient x1="100%" y1="100%" x2="0%" y2="0%" id="SvgjsLinearGradient1267"><stop stop-color="rgba(15, 185, 98, 0.2)" offset="0"></stop><stop stop-opacity="0" stop-color="rgba(15, 185, 98, 0.2)" offset="0.66"></stop></linearGradient></defs></svg>